# xmcd
#
# Track frame offsets:
#	150
#	15633
#	31741
#	43488
#	62643
#	75085
#	88596
#	103128
#	120760
#	131080
#	147016
#	172440
#	182452
#	188352
#	202825
#
# Disc length: 2994 seconds
#
# Revision: 0
# Processed by: cddbd v1.5.2PL0 Copyright (c) Steve Scherf et al.
# Submitted via: EasyCDDAExtractor 16.0.6.1
#
DISCID=b90bb00f
DTITLE=Συλλογικός δίσκος - Όλα τα αγαπημένα τραγούδια-Ηλ. Ανδριόπουλος 3
DYEAR=2009
DGENRE=Ποικίλη
TTITLE0=Μπέλλου Σωτηρία-χορωδία - Πλατεία Βάθης [στ. Μιχάλης Μπουρμπούλης]
TTITLE1=Καλογιάννης Αντώνης - Τα λαϊκά τραγούδια μας [στ. Μιχάλης Μπουρμπούλης
TTITLE1=]
TTITLE2=Πρωτοψάλτη Άλκηστις - Δειλινά στην Σπάρτη [στ. Μιχάλης Μπουρμπούλης]
TTITLE3=Μπάσης Δημήτρης - Μην κλαίς [στ. Μιχάλης Μπουρμπούλης]
TTITLE4=Μητσιάς Μανώλης - Ταξειδεύω στ. Ηλίας Ανδριόπουλος]
TTITLE5=Μπέλλου Σωτηρία - Έπεσε βροχή κι αγέρας [στ. Μάνος Ελευθερίου]
TTITLE6=Πρωτοψάλτη Άλκηστις - Όλα τα κυπαρίσσια [στ. Οδυσσέας Ελύτης]
TTITLE7=Άνευ ερμηνευτού - Τα μαγικά που σού 'γραψα τραγούδια [οργανικό]
TTITLE8=Βενετσάνου Νένα - Ο χρόνος είναι γρήγορος [στ. Οδυσσέας Ελύτης]
TTITLE9=Μπέλλου Σωτηρία - Τις ξένες πόρτες μη χτυπάς [στ. Μάνος Ελευθερίου]
TTITLE10=Βενετσάνου Νένα - Το τραγούδι του Αρχιπελάγους (Ο έρωτας)[στ. Οδυσσέα
TTITLE10=ς Ελύτης]
TTITLE11=Πρωτοψάλτη Άλκηστις - Όσοι γυρίσουν τσακισμένοι [στ. Μάνος Ελευθερίου
TTITLE11=]
TTITLE12=Βενετσάνου Νένα - Όλα τα σύννεφα [στ. Οδυσσέας Ελύτης]
TTITLE13=Μπέλλου Σωτηρία - Καϋμός παλιού ρεμπέτη [στ. Μάνος Ελευθερίου]
TTITLE14=Μητσιάς Μανώλης-Φέρτης Γιάννης - Τραγούδι του παλιού καιρού [στ. Νίκο
TTITLE14=ς Γκάτσος]
EXTD=
EXTT0=
EXTT1=
EXTT2=
EXTT3=
EXTT4=
EXTT5=
EXTT6=
EXTT7=
EXTT8=
EXTT9=
EXTT10=
EXTT11=
EXTT12=
EXTT13=
EXTT14=
PLAYORDER=
